<svg width="139" height="139" viewBox="0 0 139 139" fill="none" xmlns="http://www.w3.org/2000/svg">
<path fill-rule="evenodd" clip-rule="evenodd" d="M6 133V6H133V133H6ZM0 3C0 1.34314 1.34315 0 3 0H136C137.657 0 139 1.34315 139 3V136C139 137.657 137.657 139 136 139H3C1.34314 139 0 137.657 0 136V3ZM112 70H105.538C105.538 60.5746 101.794 51.5353 95.1295 44.8705C88.4647 38.2058 79.4254 34.4615 70 34.4615C60.5746 34.4615 51.5353 38.2058 44.8705 44.8705C38.2058 51.5353 34.4615 60.5746 34.4615 70H28C28 58.8609 32.425 48.178 40.3015 40.3015C48.178 32.425 58.8609 28 70 28C81.1391 28 91.822 32.425 99.6985 40.3015C107.575 48.178 112 58.8609 112 70ZM99.0769 112H92.6154V70C92.6154 64.002 90.2327 58.2497 85.9915 54.0085C81.7503 49.7673 75.998 47.3846 70 47.3846C64.002 47.3846 58.2497 49.7673 54.0085 54.0085C49.7673 58.2497 47.3846 64.002 47.3846 70V112H40.9231V70C40.9231 62.2883 43.9865 54.8925 49.4395 49.4395C54.8925 43.9865 62.2883 40.9231 70 40.9231C77.7117 40.9231 85.1075 43.9865 90.5605 49.4395C96.0135 54.8925 99.0769 62.2883 99.0769 70V112ZM53.8462 70V86.1538H86.1538V70C86.1538 65.7157 84.4519 61.6069 81.4225 58.5775C78.3931 55.5481 74.2843 53.8462 70 53.8462C65.7157 53.8462 61.6069 55.5481 58.5775 58.5775C55.5481 61.6069 53.8462 65.7157 53.8462 70ZM79.6923 70V79.6923H60.3077V70C60.3077 67.4294 61.3288 64.9642 63.1465 63.1465C64.9642 61.3288 67.4294 60.3077 70 60.3077C72.5706 60.3077 75.0358 61.3288 76.8535 63.1465C78.6712 64.9642 79.6923 67.4294 79.6923 70Z" fill="url(#paint0_linear_55_24)"/>
<defs>
<linearGradient id="paint0_linear_55_24" x1="69.5" y1="0" x2="69.5" y2="169" gradientUnits="userSpaceOnUse">
<stop stop-color="#C30181"/>
<stop offset="1" stop-color="#C30181" stop-opacity="0"/>
</linearGradient>
</defs>
</svg>
