<svg width="139" height="139" viewBox="0 0 139 139" fill="none" xmlns="http://www.w3.org/2000/svg">
<path fill-rule="evenodd" clip-rule="evenodd" d="M6 133V6H133V133H6ZM0 3C0 1.34314 1.34315 0 3 0H136C137.657 0 139 1.34315 139 3V136C139 137.657 137.657 139 136 139H3C1.34314 139 0 137.657 0 136V3ZM90.9545 48.0455L95.7273 58.5455L100.5 48.0455L111 43.2727L100.5 38.5L95.7273 28L90.9545 38.5L80.4545 43.2727L90.9545 48.0455ZM90.9545 101.5L95.7273 112L100.5 101.5L111 96.7273L100.5 91.9545L95.7273 81.4545L90.9545 91.9545L80.4545 96.7273L90.9545 101.5ZM48 79.5455L57.5455 100.545L67.0909 79.5455L88.0909 70L67.0909 60.4545L57.5455 39.4545L48 60.4545L27 70L48 79.5455ZM61.3636 73.8182L57.5455 82.0273L53.7273 73.8182L45.5182 70L53.7273 66.1818L57.5455 57.9727L61.3636 66.1818L69.5727 70L61.3636 73.8182Z" fill="url(#paint0_linear_54_82)"/>
<defs>
<linearGradient id="paint0_linear_54_82" x1="69.5" y1="0" x2="69.5" y2="169" gradientUnits="userSpaceOnUse">
<stop stop-color="#C30181"/>
<stop offset="1" stop-color="#C30181" stop-opacity="0"/>
</linearGradient>
</defs>
</svg>
