<svg width="139" height="139" viewBox="0 0 139 139" fill="none" xmlns="http://www.w3.org/2000/svg">
<path fill-rule="evenodd" clip-rule="evenodd" d="M6 133V6H133V133H6ZM0 3C0 1.34314 1.34315 0 3 0H136C137.657 0 139 1.34315 139 3V136C139 137.657 137.657 139 136 139H3C1.34314 139 0 137.657 0 136V3ZM93.7594 99.119C99.841 93.1008 103.6 84.7826 103.6 75.591C103.6 70.1193 102.237 64.7322 99.6321 59.9067C97.0273 55.0812 93.2609 50.9663 88.6666 47.9265C84.0723 44.8867 78.7918 43.0158 73.2929 42.4796C67.7941 41.9433 62.2465 42.7583 57.1417 44.8522C52.0368 46.9462 47.5322 50.2545 44.0269 54.4841C40.5216 58.7138 38.1237 63.7342 37.0457 69.1007C35.9677 74.4672 36.2428 80.0142 37.8467 85.2502C39.4505 90.4863 42.3336 95.2499 46.2406 99.119L40.3018 105C36.396 101.142 33.2985 96.5581 31.1873 91.5112C29.0762 86.4642 27.993 81.0538 28 75.591C28 52.6203 46.8034 34 70 34C93.1966 34 112 52.6203 112 75.591C112.007 81.0538 110.923 86.4641 108.812 91.511C106.701 96.558 103.604 101.142 99.6982 105L93.7594 99.119ZM63.7 73.5115L83.8306 56.0141L89.7694 61.8951L72.1 81.8297L63.7 73.5115Z" fill="url(#paint0_linear_54_75)"/>
<defs>
<linearGradient id="paint0_linear_54_75" x1="69.5" y1="0" x2="69.5" y2="169" gradientUnits="userSpaceOnUse">
<stop stop-color="#C30181"/>
<stop offset="1" stop-color="#C30181" stop-opacity="0"/>
</linearGradient>
</defs>
</svg>
