<svg width="139" height="139" viewBox="0 0 139 139" fill="none" xmlns="http://www.w3.org/2000/svg">
<path fill-rule="evenodd" clip-rule="evenodd" d="M6 133V6H133V133H6ZM0 3C0 1.34314 1.34315 0 3 0H136C137.657 0 139 1.34315 139 3V136C139 137.657 137.657 139 136 139H3C1.34314 139 0 137.657 0 136V3ZM27 69.2L52.2 94.4L58.08 88.52L38.865 69.305L58.185 49.985L52.2 44L27 69.2ZM79.815 88.415L85.8 94.4L111 69.2L85.8 44L79.92 49.88L99.135 69.095L79.815 88.415Z" fill="url(#paint0_linear_54_90)"/>
<defs>
<linearGradient id="paint0_linear_54_90" x1="69.5" y1="0" x2="69.5" y2="169" gradientUnits="userSpaceOnUse">
<stop stop-color="#C30181"/>
<stop offset="1" stop-color="#C30181" stop-opacity="0"/>
</linearGradient>
</defs>
</svg>
