<svg width="17" height="18" viewBox="0 0 17 18" fill="none" xmlns="http://www.w3.org/2000/svg">
<path d="M2 18C1.45 18 0.979002 17.8236 0.587002 17.4708C0.195002 17.118 -0.000664969 16.6944 1.69779e-06 16.2V3.6H2V16.2H13V18H2ZM6 14.4C5.45 14.4 4.979 14.2236 4.587 13.8708C4.195 13.518 3.99934 13.0944 4 12.6V1.8C4 1.305 4.196 0.881101 4.588 0.528301C4.98 0.175501 5.45067 -0.000598472 6 1.52801e-06H15C15.55 1.52801e-06 16.021 0.176402 16.413 0.529202C16.805 0.882001 17.0007 1.3056 17 1.8V12.6C17 13.095 16.804 13.5189 16.412 13.8717C16.02 14.2245 15.5493 14.4006 15 14.4H6Z" fill="white"/>
</svg>
