<svg width="500" height="85" viewBox="0 0 500 85" fill="none" xmlns="http://www.w3.org/2000/svg">
<path d="M102.456 79.72V27.88H132.536C133.944 27.88 135.224 28.2427 136.376 28.968C137.571 29.6507 138.509 30.5893 139.192 31.784C139.917 32.936 140.28 34.216 140.28 35.624V57.256C140.28 58.664 139.917 59.9653 139.192 61.16C138.509 62.312 137.571 63.2507 136.376 63.976C135.224 64.6587 133.944 65 132.536 65H107.704V79.72H102.456ZM110.264 59.752H132.536C133.219 59.752 133.795 59.5173 134.264 59.048C134.776 58.536 135.032 57.9387 135.032 57.256V35.624C135.032 34.9413 134.776 34.3653 134.264 33.896C133.795 33.384 133.219 33.128 132.536 33.128H110.264C109.581 33.128 108.984 33.384 108.472 33.896C107.96 34.3653 107.704 34.9413 107.704 35.624V57.256C107.704 57.9387 107.96 58.536 108.472 59.048C108.984 59.5173 109.581 59.752 110.264 59.752ZM152.572 65C151.164 65 149.863 64.6587 148.668 63.976C147.516 63.2507 146.577 62.312 145.852 61.16C145.169 59.9653 144.828 58.664 144.828 57.256V43.816H177.34V35.624C177.34 34.9413 177.084 34.3653 176.572 33.896C176.103 33.384 175.527 33.128 174.844 33.128H144.828V27.88H174.844C176.295 27.88 177.596 28.2427 178.748 28.968C179.943 29.6507 180.881 30.5893 181.564 31.784C182.289 32.936 182.652 34.216 182.652 35.624V65H152.572ZM152.572 59.752H177.34V49.064H150.076V57.256C150.076 57.9387 150.311 58.536 150.78 59.048C151.292 59.5173 151.889 59.752 152.572 59.752ZM195.41 79.656V74.344H218.578C219.26 74.344 219.836 74.088 220.306 73.576C220.818 73.1067 221.074 72.5307 221.074 71.848V65H196.306C194.898 65 193.596 64.6587 192.402 63.976C191.25 63.2507 190.311 62.312 189.586 61.16C188.903 59.9653 188.562 58.664 188.562 57.256V35.624C188.562 34.216 188.903 32.936 189.586 31.784C190.311 30.5893 191.25 29.6507 192.402 28.968C193.596 28.2427 194.898 27.88 196.306 27.88H218.578C220.028 27.88 221.33 28.2427 222.482 28.968C223.676 29.6507 224.615 30.5893 225.298 31.784C225.98 32.936 226.322 34.216 226.322 35.624V71.848C226.322 73.2987 225.98 74.6 225.298 75.752C224.615 76.9467 223.676 77.8853 222.482 78.568C221.33 79.2933 220.028 79.656 218.578 79.656H195.41ZM196.306 59.752H218.578C219.26 59.752 219.836 59.5173 220.306 59.048C220.818 58.536 221.074 57.9387 221.074 57.256V35.624C221.074 34.9413 220.818 34.3653 220.306 33.896C219.836 33.384 219.26 33.128 218.578 33.128H196.306C195.623 33.128 195.026 33.384 194.514 33.896C194.044 34.3653 193.81 34.9413 193.81 35.624V57.256C193.81 57.9387 194.044 58.536 194.514 59.048C195.026 59.5173 195.623 59.752 196.306 59.752ZM239.696 65C238.288 65 236.986 64.6587 235.792 63.976C234.64 63.2507 233.701 62.312 232.976 61.16C232.293 59.9653 231.952 58.664 231.952 57.256V35.624C231.952 34.216 232.293 32.936 232.976 31.784C233.701 30.5893 234.64 29.6507 235.792 28.968C236.986 28.2427 238.288 27.88 239.696 27.88H261.968C263.418 27.88 264.72 28.2427 265.872 28.968C267.066 29.6507 268.005 30.5893 268.688 31.784C269.413 32.936 269.776 34.216 269.776 35.624V49.064H237.2V57.256C237.2 57.9387 237.434 58.536 237.904 59.048C238.416 59.5173 239.013 59.752 239.696 59.752H269.776V65H239.696ZM237.2 43.816H264.464V35.624C264.464 34.9413 264.208 34.3653 263.696 33.896C263.226 33.384 262.65 33.128 261.968 33.128H239.696C239.013 33.128 238.416 33.384 237.904 33.896C237.434 34.3653 237.2 34.9413 237.2 35.624V43.816ZM276.392 65V23.464C276.392 22.0133 276.733 20.712 277.416 19.56C278.099 18.3653 279.016 17.4267 280.168 16.744C281.363 16.0613 282.685 15.72 284.136 15.72H297.704V20.968H284.136C283.453 20.968 282.856 21.224 282.344 21.736C281.875 22.2053 281.64 22.7813 281.64 23.464V27.88H297.704V33.128H281.64V65H276.392ZM310.135 65C308.727 65 307.425 64.6587 306.231 63.976C305.079 63.2507 304.14 62.312 303.415 61.16C302.732 59.9653 302.391 58.664 302.391 57.256V15.72H307.639V57.256C307.639 57.9387 307.873 58.536 308.343 59.048C308.855 59.5173 309.452 59.752 310.135 59.752H316.407V65H310.135ZM328.758 65C327.35 65 326.049 64.6587 324.854 63.976C323.702 63.2507 322.763 62.312 322.038 61.16C321.355 59.9653 321.014 58.664 321.014 57.256V35.624C321.014 34.216 321.355 32.936 322.038 31.784C322.763 30.5893 323.702 29.6507 324.854 28.968C326.049 28.2427 327.35 27.88 328.758 27.88H351.03C352.481 27.88 353.782 28.2427 354.934 28.968C356.129 29.6507 357.067 30.5893 357.75 31.784C358.475 32.936 358.838 34.216 358.838 35.624V57.256C358.838 58.664 358.475 59.9653 357.75 61.16C357.067 62.312 356.129 63.2507 354.934 63.976C353.782 64.6587 352.481 65 351.03 65H328.758ZM328.758 59.752H351.03C351.713 59.752 352.289 59.5173 352.758 59.048C353.27 58.536 353.526 57.9387 353.526 57.256V35.624C353.526 34.9413 353.27 34.3653 352.758 33.896C352.289 33.384 351.713 33.128 351.03 33.128H328.758C328.075 33.128 327.478 33.384 326.966 33.896C326.497 34.3653 326.262 34.9413 326.262 35.624V57.256C326.262 57.9387 326.497 58.536 326.966 59.048C327.478 59.5173 328.075 59.752 328.758 59.752ZM376.645 65L362.053 27.88H367.685L378.949 55.528L390.917 27.88H397.829L410.565 55.464L421.061 27.88H426.757L412.741 65H408.197L394.373 34.344L381.253 65H376.645ZM431.831 65V59.752H437.079V65H431.831Z" fill="white"/>
<path d="M453.135 65C451.727 65 450.425 64.6587 449.231 63.976C448.079 63.2507 447.14 62.312 446.415 61.16C445.732 59.9653 445.391 58.664 445.391 57.256V43.816H477.903V35.624C477.903 34.9413 477.647 34.3653 477.135 33.896C476.665 33.384 476.089 33.128 475.407 33.128H445.391V27.88H475.407C476.857 27.88 478.159 28.2427 479.311 28.968C480.505 29.6507 481.444 30.5893 482.127 31.784C482.852 32.936 483.215 34.216 483.215 35.624V65H453.135ZM453.135 59.752H477.903V49.064H450.639V57.256C450.639 57.9387 450.873 58.536 451.343 59.048C451.855 59.5173 452.452 59.752 453.135 59.752ZM489.828 65V27.88H495.076V65H489.828ZM489.828 20.968V15.72H495.076V20.968H489.828Z" fill="#2AFF9B" fill-opacity="0.7"/>
<path d="M34.4636 3.32877C39.6092 1.19739 45.3908 1.19739 50.5364 3.32877L64.5157 9.11919C69.6613 11.2506 73.7494 15.3387 75.8808 20.4843L81.6712 34.4636C83.8026 39.6092 83.8026 45.3908 81.6712 50.5364L75.8808 64.5157C73.7494 69.6613 69.6613 73.7494 64.5157 75.8808L50.5364 81.6712C45.3908 83.8026 39.6092 83.8026 34.4636 81.6712L20.4843 75.8808C15.3387 73.7494 11.2506 69.6613 9.1192 64.5157L3.32877 50.5364C1.19739 45.3908 1.19739 39.6092 3.32877 34.4636L9.11919 20.4843C11.2506 15.3387 15.3387 11.2506 20.4843 9.1192L34.4636 3.32877Z" fill="white"/>
<path d="M42.5003 11.6794C37.0902 11.6794 31.7753 13.1035 27.09 15.8086C22.4047 18.5136 18.5139 22.4044 15.8089 27.0897L42.5003 42.5L42.5003 11.6794Z" fill="white"/>
<path d="M42.5003 72.6718C37.0902 72.6718 31.7753 71.2626 27.09 68.586C22.4047 65.9094 18.5139 62.0597 15.8089 57.4237L42.5003 42.1756L42.5003 72.6718Z" fill="#999999"/>
<path d="M42.4997 11.6794C47.9098 11.6794 53.2247 13.1035 57.91 15.8086C62.5953 18.5136 66.4861 22.4044 69.1911 27.0897L42.4997 42.5L42.4997 11.6794Z" fill="#E6E6E6"/>
<path d="M42.4997 72.6718C47.9098 72.6718 53.2247 71.2626 57.91 68.586C62.5953 65.9094 66.4861 62.0597 69.1911 57.4237L42.4997 42.1756L42.4997 72.6718Z" fill="#B3B3B3"/>
<path d="M69.1911 27.0897C71.8962 31.775 73.3203 37.0898 73.3203 42.5C73.3203 47.9101 71.8962 53.225 69.1911 57.9103L42.4997 42.5L69.1911 27.0897Z" fill="#CCCCCC"/>
<path d="M15.8089 27.0897C13.1038 31.775 11.6797 37.0898 11.6797 42.5C11.6797 47.9101 13.1038 53.225 15.8089 57.9103L42.5003 42.5L15.8089 27.0897Z" fill="#E6E6E6"/>
</svg>
