<svg width="18" height="12" viewBox="0 0 18 12" fill="none" xmlns="http://www.w3.org/2000/svg">
<path fill-rule="evenodd" clip-rule="evenodd" d="M2.6924 2.64281C4.22569 1.37186 6.45576 0 9 0C11.5442 0 13.7743 1.37186 15.3076 2.64281C16.0859 3.2879 16.7136 3.93112 17.1471 4.41303C17.3644 4.65452 17.5341 4.85689 17.6508 5.00062C17.7092 5.07252 17.7544 5.12986 17.7857 5.1702C17.8014 5.19037 17.8136 5.20631 17.8223 5.2177L17.8326 5.23135L17.8358 5.23556L17.8372 5.23754C17.8372 5.23754 17.8376 5.23797 17.1818 5.72727C17.8376 6.21657 17.8372 6.21701 17.8372 6.21701L17.8358 6.21899L17.8326 6.22319L17.8223 6.23684C17.8136 6.24824 17.8014 6.26417 17.7857 6.28435C17.7544 6.32469 17.7092 6.38202 17.6508 6.45393C17.5341 6.59766 17.3644 6.80003 17.1471 7.04151C16.7136 7.52342 16.0859 8.16664 15.3076 8.81173C13.7743 10.0827 11.5442 11.4545 9 11.4545C6.45576 11.4545 4.22569 10.0827 2.6924 8.81173C1.91415 8.16664 1.28638 7.52342 0.852856 7.04151C0.635622 6.80003 0.465916 6.59766 0.349219 6.45393C0.29084 6.38202 0.245638 6.32469 0.214298 6.28435C0.198626 6.26417 0.186411 6.24824 0.17774 6.23684L0.167399 6.22319L0.16424 6.21899L0.163167 6.21756L0.162757 6.21701C0.162757 6.21701 0.162432 6.21657 0.818182 5.72727C0.162432 5.23797 0.162757 5.23754 0.162757 5.23754L0.163167 5.23699L0.16424 5.23556L0.167399 5.23135L0.17774 5.2177C0.186411 5.20631 0.198626 5.19037 0.214298 5.1702C0.245638 5.12986 0.29084 5.07252 0.349219 5.00062C0.465916 4.85689 0.635622 4.65452 0.852856 4.41303C1.28638 3.93112 1.91415 3.2879 2.6924 2.64281ZM0.818182 5.72727L0.162432 5.23797C-0.0541439 5.52823 -0.0541439 5.92632 0.162432 6.21657L0.818182 5.72727ZM1.87542 5.72727C1.93413 5.79515 1.99888 5.86872 2.06941 5.94712C2.46391 6.38567 3.03432 6.96972 3.73667 7.5519C5.16458 8.7355 7.02542 9.81818 9 9.81818C10.9746 9.81818 12.8354 8.7355 14.2633 7.5519C14.9657 6.96972 15.5361 6.38567 15.9306 5.94712C16.0011 5.86872 16.0659 5.79515 16.1246 5.72727C16.0659 5.6594 16.0011 5.58582 15.9306 5.50742C15.5361 5.06888 14.9657 4.48482 14.2633 3.90264C12.8354 2.71905 10.9746 1.63636 9 1.63636C7.02542 1.63636 5.16458 2.71905 3.73667 3.90264C3.03432 4.48482 2.46391 5.06888 2.06941 5.50742C1.99888 5.58582 1.93413 5.6594 1.87542 5.72727ZM17.1818 5.72727L17.8376 6.21657C18.0541 5.92632 18.0541 5.52823 17.8376 5.23797L17.1818 5.72727Z" fill="white"/>
<path fill-rule="evenodd" clip-rule="evenodd" d="M6.9751 3.70238C7.51214 3.16534 8.24052 2.86364 9 2.86364C9.75948 2.86364 10.4879 3.16534 11.0249 3.70238C11.5619 4.23941 11.8636 4.96779 11.8636 5.72727C11.8636 6.48676 11.5619 7.21513 11.0249 7.75217C10.4879 8.28921 9.75948 8.59091 9 8.59091C8.24052 8.59091 7.51214 8.28921 6.9751 7.75217C6.43807 7.21513 6.13636 6.48676 6.13636 5.72727C6.13636 4.96779 6.43807 4.23941 6.9751 3.70238ZM9 4.5C8.67451 4.5 8.36235 4.6293 8.13219 4.85946C7.90203 5.08962 7.77273 5.40178 7.77273 5.72727C7.77273 6.05277 7.90203 6.36493 8.13219 6.59509C8.36235 6.82524 8.67451 6.95455 9 6.95455C9.32549 6.95455 9.63765 6.82524 9.86781 6.59509C10.098 6.36493 10.2273 6.05277 10.2273 5.72727C10.2273 5.40178 10.098 5.08962 9.86781 4.85946C9.63765 4.6293 9.32549 4.5 9 4.5Z" fill="white"/>
</svg>
