<svg width="18" height="14" viewBox="0 0 18 14" fill="none" xmlns="http://www.w3.org/2000/svg">
<path d="M14.4595 0.0622393C14.2418 0.0791995 14.0336 0.159198 13.8605 0.292469C13.6875 0.425739 13.5569 0.606516 13.4849 0.812731C13.4128 1.01895 13.4024 1.24168 13.4548 1.45374C13.5072 1.66579 13.6202 1.85801 13.7801 2.0069C14.4055 2.63112 14.9014 3.3728 15.2393 4.18931C15.5771 5.00581 15.7503 5.88105 15.7487 6.76469C15.7498 7.64827 15.5764 8.52335 15.2386 9.3398C14.9008 10.1562 14.4051 10.898 13.7801 11.5225C13.6714 11.6262 13.5846 11.7506 13.5248 11.8884C13.4649 12.0262 13.4332 12.1745 13.4314 12.3247C13.4297 12.4749 13.458 12.6239 13.5147 12.763C13.5714 12.9021 13.6553 13.0285 13.7615 13.1347C13.8677 13.2409 13.9941 13.3248 14.1332 13.3815C14.2723 13.4382 14.4213 13.4665 14.5715 13.4648C14.7217 13.4631 14.8701 13.4313 15.0078 13.3715C15.1456 13.3116 15.27 13.2248 15.3737 13.1162C17.055 11.4299 17.999 9.14586 17.999 6.76469C17.999 4.38353 17.055 2.09949 15.3737 0.413224C15.2709 0.304526 15.1475 0.21743 15.0106 0.157034C14.8737 0.0966382 14.7261 0.0641561 14.5765 0.061489C14.5376 0.0594597 14.4985 0.0594597 14.4595 0.061489V0.0622393ZM3.28052 0.0847381C3.03122 0.117803 2.80018 0.233455 2.6243 0.413224C0.943093 2.09949 -0.000976563 4.38353 -0.000976562 6.76469C-0.000976563 9.14586 0.943093 11.4299 2.6243 13.1162C2.72804 13.2248 2.85245 13.3116 2.99021 13.3715C3.12798 13.4313 3.27632 13.4631 3.42651 13.4648C3.57671 13.4665 3.72574 13.4382 3.86485 13.3815C4.00395 13.3248 4.13032 13.2409 4.23654 13.1347C4.34275 13.0285 4.42667 12.9021 4.48335 12.763C4.54003 12.6239 4.56834 12.4749 4.56661 12.3247C4.56488 12.1745 4.53315 12.0262 4.47328 11.8884C4.41341 11.7506 4.32661 11.6262 4.21798 11.5225C3.59253 10.8983 3.09663 10.1566 2.75878 9.34008C2.42092 8.52357 2.24779 7.64834 2.24932 6.76469C2.24828 5.88112 2.42164 5.00603 2.75947 4.18959C3.09729 3.37315 3.59293 2.63141 4.21798 2.0069C4.38804 1.84175 4.50158 1.62711 4.5424 1.3936C4.58322 1.16009 4.54923 0.919649 4.44528 0.706603C4.34134 0.493557 4.17275 0.318791 3.96358 0.20725C3.75441 0.0957094 3.51535 0.0523445 3.28052 0.0847381ZM6.14015 2.56938C5.89349 2.5959 5.66252 2.70321 5.48318 2.87462C4.93892 3.36631 4.50351 3.96639 4.20491 4.63632C3.9063 5.30625 3.75109 6.03123 3.74925 6.76469C3.74925 8.30063 4.40173 9.69706 5.45993 10.6555C5.56925 10.7555 5.6972 10.833 5.83647 10.8836C5.97574 10.9342 6.12361 10.9568 6.27163 10.9502C6.41966 10.9436 6.56493 10.908 6.69917 10.8452C6.8334 10.7825 6.95397 10.694 7.05398 10.5847C7.154 10.4753 7.2315 10.3474 7.28206 10.2081C7.33263 10.0688 7.35527 9.92097 7.34869 9.77295C7.34211 9.62492 7.30643 9.47965 7.24371 9.34541C7.18098 9.21118 7.09243 9.09061 6.98311 8.9906C6.67177 8.70965 6.4232 8.36618 6.25365 7.98263C6.0841 7.59907 5.99738 7.18405 5.99915 6.76469C5.9976 6.34519 6.08449 5.93007 6.25416 5.54641C6.42383 5.16274 6.67247 4.81915 6.98386 4.53804C7.16359 4.38169 7.28904 4.17231 7.34215 3.94009C7.39525 3.70786 7.37326 3.46477 7.27935 3.24584C7.18544 3.02691 7.02446 2.84345 6.81959 2.72188C6.61473 2.60031 6.37731 2.54691 6.14015 2.56938ZM11.6944 2.56938C11.4713 2.58168 11.2569 2.66014 11.0786 2.79476C10.9002 2.92937 10.766 3.11405 10.6931 3.32524C10.6201 3.53643 10.6117 3.76456 10.6689 3.98056C10.726 4.19656 10.8463 4.39063 11.0142 4.53804C11.3258 4.819 11.5745 5.16256 11.7442 5.54626C11.9139 5.92996 12.0007 6.34515 11.9989 6.76469C12.0004 7.1842 11.9136 7.59932 11.7439 7.98298C11.5742 8.36665 11.3256 8.71024 11.0142 8.99135C10.8888 9.08496 10.7844 9.2037 10.7075 9.33996C10.6307 9.47622 10.5831 9.62702 10.5678 9.78272C10.5525 9.93842 10.5698 10.0956 10.6187 10.2442C10.6676 10.3928 10.747 10.5296 10.8517 10.6458C10.9565 10.762 11.0843 10.8551 11.227 10.9191C11.3698 10.9831 11.5243 11.0167 11.6808 11.0176C11.8372 11.0185 11.9921 10.9868 12.1356 10.9244C12.2791 10.8621 12.408 10.7705 12.5141 10.6555C13.0586 10.1638 13.4942 9.56364 13.7929 8.89357C14.0917 8.22349 14.247 7.49834 14.2488 6.76469C14.2516 6.03259 14.1008 5.30804 13.8061 4.63785C13.5114 3.96766 13.0795 3.36672 12.5381 2.87387C12.4259 2.76796 12.2931 2.68628 12.1479 2.63389C12.0028 2.58151 11.8484 2.55955 11.6944 2.56938ZM8.99902 5.40575C8.73028 5.4059 8.46762 5.48573 8.24424 5.63514C8.02086 5.78455 7.8468 5.99684 7.74406 6.24517C7.64132 6.4935 7.61452 6.76671 7.66704 7.03027C7.71956 7.29383 7.84904 7.5359 8.03912 7.72587C8.2292 7.91585 8.47134 8.0452 8.73493 8.09758C8.99852 8.14995 9.27172 8.123 9.51999 8.02012C9.76826 7.91724 9.98045 7.74306 10.1297 7.5196C10.279 7.29614 10.3587 7.03343 10.3587 6.76469C10.359 6.58605 10.324 6.40911 10.2558 6.24401C10.1876 6.07891 10.0874 5.92891 9.96113 5.80259C9.83481 5.67627 9.6848 5.57613 9.5197 5.5079C9.3546 5.43967 9.17766 5.40546 8.99902 5.40575Z" fill="white"/>
</svg>
