<svg width="139" height="139" viewBox="0 0 139 139" fill="none" xmlns="http://www.w3.org/2000/svg">
<path fill-rule="evenodd" clip-rule="evenodd" d="M6 133V6H133V133H6ZM0 3C0 1.34314 1.34315 0 3 0H136C137.657 0 139 1.34315 139 3V136C139 137.657 137.657 139 136 139H3C1.34314 139 0 137.657 0 136V3ZM102.102 95.5033L112 85.6053V112H85.6053L95.5033 102.102L80.7007 87.2993L87.2993 80.7007L102.102 95.5033ZM37.898 44.4967L28 54.3947V28H54.3947L44.4967 37.898L59.2993 52.7007L52.7007 59.2993L37.898 44.4967ZM85.6053 28H112V54.3947L102.102 44.4967L87.2993 59.2993L80.7007 52.7007L95.5033 37.898L85.6053 28ZM54.3947 112H28V85.6053L37.898 95.5033L52.7007 80.7007L59.2993 87.2993L44.4967 102.102L54.3947 112Z" fill="url(#paint0_linear_55_7)"/>
<defs>
<linearGradient id="paint0_linear_55_7" x1="69.5" y1="0" x2="69.5" y2="169" gradientUnits="userSpaceOnUse">
<stop stop-color="#C30181"/>
<stop offset="1" stop-color="#C30181" stop-opacity="0"/>
</linearGradient>
</defs>
</svg>
